<svg version="1.1" id="Layer_1" xmlns="http://www.w3.org/2000/svg" xmlns:xlink="http://www.w3.org/1999/xlink" x="0px" y="0px"
	 width="100%" viewBox="0 0 800 600" enable-background="new 0 0 800 600" xml:space="preserve">
<path fill="#FFFFFF" opacity="1.000000" stroke="none" 
	d="
M801.000000,219.000000 
	C801.000000,346.666656 801.000000,473.833344 801.000000,601.000000 
	C534.333313,601.000000 267.666656,601.000000 1.000000,601.000000 
	C1.000000,401.000000 1.000000,201.000000 1.000000,1.000000 
	C267.666656,1.000000 534.333313,1.000000 801.000000,1.000000 
	C801.000000,73.500000 801.000000,146.000000 801.000000,219.000000 
M74.214592,57.794495 
	C73.984680,57.847340 73.754761,57.900185 73.328445,56.512993 
	C72.671288,55.968227 72.014137,55.423462 71.696823,54.613514 
	C71.439735,54.267521 71.182640,53.921524 71.556648,53.037346 
	C77.536674,45.500301 77.001839,35.633957 69.517387,30.673258 
	C66.191147,28.468622 61.451340,27.138983 57.493210,27.415680 
	C49.996674,27.939735 45.964130,33.637169 44.228394,39.017204 
	C38.887745,37.248055 34.298138,34.704086 29.576845,34.430214 
	C24.031614,34.108547 19.347044,39.283485 18.287573,44.704639 
	C17.117926,50.689548 19.976274,55.608643 26.128590,60.067627 
	C25.919550,60.306606 25.710508,60.545582 24.834986,60.767189 
	C23.489679,60.417286 22.144373,60.067387 19.993971,59.508087 
	C21.400013,62.475849 22.378262,64.540657 23.472301,66.849869 
	C24.270409,66.502167 24.815250,66.140495 25.404697,66.039726 
	C26.128469,65.915985 26.889502,66.010208 27.333948,66.010208 
	C30.115858,71.602715 24.032194,79.122086 31.962166,83.008286 
	C30.425037,85.651245 24.069523,87.297249 20.821215,86.847115 
	C18.061323,86.464653 15.098552,87.264404 12.300121,87.880058 
	C12.021890,87.941269 12.262864,90.362526 12.262864,92.496758 
	C17.555561,90.734520 21.870127,89.067772 26.314295,87.890099 
	C29.955996,86.925079 33.942352,86.806221 34.185429,81.765083 
	C40.991707,81.765083 47.420074,81.765083 53.848442,81.765083 
	C60.250393,81.765083 66.652344,81.765083 73.128273,81.765083 
	C73.356178,77.327225 73.551186,73.529854 73.708328,69.861038 
	C73.708328,69.861038 73.616440,69.765465 74.512283,69.799980 
	C78.981079,70.961472 83.449875,72.122971 87.785301,73.249802 
	C87.785301,67.170929 87.785301,60.534405 87.785301,54.532307 
	C83.152397,55.757133 78.682007,56.938995 74.214592,57.794495 
M112.399696,49.613060 
	C110.441658,54.211891 108.483612,58.810719 106.525566,63.409550 
	C106.039757,63.352154 105.553947,63.294758 105.068138,63.237366 
	C103.690346,60.115932 102.230415,57.027714 100.952003,53.866093 
	C98.361694,47.459991 98.141304,47.317375 91.005585,49.167980 
	C91.005585,57.586079 91.005585,66.038383 91.005585,74.715950 
	C92.898460,74.715950 94.653191,74.715950 96.979141,74.715950 
	C96.979141,69.790047 96.979141,65.002449 96.979141,60.214855 
	C99.499023,63.855198 101.005310,67.657433 102.760956,71.340797 
	C103.402344,72.686432 104.636162,73.749695 105.599693,74.941772 
	C106.727295,73.716743 108.190399,72.661644 108.914413,71.232201 
	C110.547569,68.007812 111.815155,64.598251 113.231476,61.264027 
	C113.691307,61.417725 114.151138,61.571426 114.610970,61.725124 
	C114.610970,65.993477 114.610970,70.261826 114.610970,74.676414 
	C116.799194,74.676414 118.539116,74.676414 120.373833,74.676414 
	C120.373833,65.864166 120.373833,57.319386 120.373833,48.181259 
	C117.627144,48.481926 115.249588,48.742184 112.399696,49.613060 
M248.251587,66.396027 
	C248.251587,60.469330 248.251587,54.542629 248.251587,48.877090 
	C242.680969,47.303211 239.542786,48.708992 238.129562,54.061222 
	C237.196121,57.596416 235.311584,60.880486 233.380005,65.378052 
	C231.458481,60.734459 229.587646,57.346207 228.662781,53.716892 
	C227.220123,48.055756 223.736404,47.520763 218.842896,48.837189 
	C218.842896,57.479351 218.842896,66.047005 218.842896,74.600677 
	C220.802475,74.600677 222.523026,74.600677 224.868347,74.600677 
	C224.868347,69.847786 224.868347,65.424370 224.868347,61.000946 
	C227.477890,64.651001 228.974289,68.462738 230.681686,72.177490 
	C231.169250,73.238243 232.498657,74.888908 233.040344,74.746048 
	C234.193588,74.441864 235.470108,73.326920 236.011566,72.211861 
	C237.932297,68.256432 239.565308,64.161285 241.307327,60.119076 
	C241.609879,60.167515 241.912430,60.215950 242.214981,60.264389 
	C242.214981,62.641933 242.214981,65.019478 242.214981,67.397026 
	C242.214981,69.831177 242.214981,72.265335 242.214981,74.624878 
	C244.594528,74.624878 246.316452,74.624878 248.251526,74.624878 
	C248.251526,71.991867 248.251526,69.673157 248.251587,66.396027 
M124.500168,57.275539 
	C123.641121,62.860512 123.536972,68.338165 128.259415,72.451172 
	C132.316132,75.984367 139.984970,76.263672 144.687622,73.339706 
	C149.288696,70.478905 151.428116,63.760258 149.798904,57.288296 
	C148.429688,51.849171 144.084457,48.346684 138.263031,47.989796 
	C131.473999,47.573586 127.336082,50.180393 124.500168,57.275539 
M214.064209,55.719604 
	C210.604248,48.958878 204.133392,46.300751 197.042542,48.727364 
	C190.594315,50.934063 187.460602,57.527767 189.062988,65.517311 
	C190.368805,72.028145 195.812042,75.771156 203.199570,75.238235 
	C212.460999,74.570137 216.420258,67.865639 214.064209,55.719604 
M278.584473,73.181808 
	C280.937164,73.937675 283.289856,74.693550 285.642548,75.449417 
	C284.297028,71.086685 282.590271,67.858566 280.490021,64.910767 
	C278.658417,62.340042 278.818542,60.262390 280.613525,57.765015 
	C282.604675,54.994759 284.198486,51.938938 285.965332,49.007458 
	C285.776886,48.624744 285.588409,48.242031 285.399963,47.859318 
	C283.076874,48.559650 280.335602,48.720486 278.545410,50.108261 
	C276.661285,51.568859 275.686554,54.202576 274.148010,56.581055 
	C270.548645,52.699890 269.882050,45.471043 262.291138,49.155262 
	C264.185608,52.234043 265.926453,55.422863 268.024506,58.356228 
	C269.632568,60.604519 269.505096,62.371124 267.967590,64.582466 
	C265.767639,67.746475 263.900421,71.141785 262.006836,74.248459 
	C270.131042,77.986305 270.293488,69.722984 274.393829,66.432770 
	C275.775269,68.697052 276.949432,70.621597 278.584473,73.181808 
M153.145691,53.725258 
	C155.751984,60.723476 158.358276,67.721695 161.352966,75.762772 
	C163.760620,74.721756 167.158890,74.337875 167.832306,72.777802 
	C171.166870,65.052612 173.781708,57.016750 176.690018,48.980450 
	C172.620132,47.571568 170.104034,48.139618 168.958160,52.495670 
	C167.811646,56.854160 166.120773,61.069454 164.225815,66.651695 
	C162.207413,61.106716 160.395798,57.029434 159.266525,52.771206 
	C158.165115,48.618015 155.947647,47.496960 151.660995,48.869999 
	C152.096344,50.288830 152.513931,51.649803 153.145691,53.725258 
M179.122665,65.448082 
	C179.122665,68.547043 179.122665,71.645996 179.122665,74.657623 
	C181.532684,74.657623 183.280090,74.657623 184.963501,74.657623 
	C184.963501,65.789635 184.963501,57.208981 184.963501,48.317394 
	C182.886581,48.421665 181.137299,48.509487 179.122665,48.610634 
	C179.122665,54.192963 179.122665,59.329239 179.122665,65.448082 
M252.999512,50.965961 
	C252.999512,58.905029 252.999512,66.844101 252.999512,74.647400 
	C255.371262,74.647400 257.124298,74.647400 258.740784,74.647400 
	C258.740784,65.784149 258.740784,57.218620 258.740784,47.511612 
	C256.374664,48.569134 254.687668,49.323139 252.999512,50.965961 
z"/>
<path fill="#0F0F0F" opacity="1.000000" stroke="none" 
	d="
M71.356987,54.878700 
	C72.014137,55.423462 72.671288,55.968227 73.342224,57.582729 
	C73.486069,62.345806 73.616135,66.039146 73.746193,69.732483 
	C73.551186,73.529854 73.356178,77.327225 73.128273,81.765083 
	C66.652344,81.765083 60.250393,81.765083 53.848442,81.765083 
	C47.420074,81.765083 40.991707,81.765083 34.185429,81.765083 
	C33.942352,86.806221 29.955996,86.925079 26.314295,87.890099 
	C21.870127,89.067772 17.555561,90.734520 12.262864,92.496758 
	C12.262864,90.362526 12.021890,87.941269 12.300121,87.880058 
	C15.098552,87.264404 18.061323,86.464653 20.821215,86.847115 
	C24.069523,87.297249 30.425037,85.651245 31.960602,83.008690 
	C24.032194,79.122086 30.115858,71.602715 27.333948,66.010208 
	C26.889502,66.010208 26.128469,65.915985 25.404697,66.039726 
	C24.815250,66.140495 24.270409,66.502167 23.472301,66.849869 
	C22.378262,64.540657 21.400013,62.475849 19.993971,59.508087 
	C22.144373,60.067387 23.489679,60.417286 25.475796,60.899513 
	C26.364428,60.507065 26.612247,59.982296 26.860069,59.457531 
	C19.976274,55.608643 17.117926,50.689548 18.287573,44.704639 
	C19.347044,39.283485 24.031614,34.108547 29.576845,34.430214 
	C34.298138,34.704086 38.887745,37.248055 44.228394,39.017204 
	C45.964130,33.637169 49.996674,27.939735 57.493210,27.415680 
	C61.451340,27.138983 66.191147,28.468622 69.517387,30.673258 
	C77.001839,35.633957 77.536674,45.500301 71.113007,53.351418 
	C70.898567,54.069893 71.127777,54.474297 71.356987,54.878700 
M55.295860,35.743454 
	C51.916840,38.032860 50.827461,41.531334 52.401997,44.879250 
	C53.432701,47.070831 56.284008,49.668186 58.417770,49.757996 
	C61.056347,49.869053 64.909439,48.237030 66.175743,46.122967 
	C67.412544,44.058151 66.917976,39.967102 65.633545,37.610176 
	C63.643890,33.959171 59.736782,33.804436 55.295860,35.743454 
M32.930225,52.638378 
	C38.397182,49.627045 39.590622,44.165211 35.022762,41.566921 
	C33.121056,40.485191 29.557953,40.314014 27.873022,41.427574 
	C26.192820,42.538006 24.986446,45.884430 25.240732,48.055077 
	C25.645430,51.509663 28.528578,53.142197 32.930225,52.638378 
z"/>
<path fill="#0F0F0F" opacity="1.000000" stroke="none" 
	d="
M112.635864,49.307747 
	C115.249588,48.742184 117.627144,48.481926 120.373833,48.181259 
	C120.373833,57.319386 120.373833,65.864166 120.373833,74.676414 
	C118.539116,74.676414 116.799194,74.676414 114.610970,74.676414 
	C114.610970,70.261826 114.610970,65.993477 114.610970,61.725124 
	C114.151138,61.571426 113.691307,61.417725 113.231476,61.264027 
	C111.815155,64.598251 110.547569,68.007812 108.914413,71.232201 
	C108.190399,72.661644 106.727295,73.716743 105.599701,74.941772 
	C104.636162,73.749695 103.402344,72.686432 102.760956,71.340797 
	C101.005310,67.657433 99.499023,63.855198 96.979141,60.214855 
	C96.979141,65.002449 96.979141,69.790047 96.979141,74.715950 
	C94.653191,74.715950 92.898460,74.715950 91.005585,74.715950 
	C91.005585,66.038383 91.005585,57.586079 91.005585,49.167980 
	C98.141304,47.317375 98.361694,47.459991 100.952003,53.866093 
	C102.230415,57.027714 103.690346,60.115932 105.068138,63.237366 
	C105.553947,63.294758 106.039757,63.352154 106.525566,63.409550 
	C108.483612,58.810719 110.441658,54.211891 112.635864,49.307747 
z"/>
<path fill="#0F0F0F" opacity="1.000000" stroke="none" 
	d="
M248.251556,66.875237 
	C248.251526,69.673157 248.251526,71.991867 248.251526,74.624878 
	C246.316452,74.624878 244.594528,74.624878 242.214981,74.624878 
	C242.214981,72.265335 242.214981,69.831177 242.214981,67.397026 
	C242.214981,65.019478 242.214981,62.641933 242.214981,60.264389 
	C241.912430,60.215950 241.609879,60.167515 241.307327,60.119076 
	C239.565308,64.161285 237.932297,68.256432 236.011566,72.211861 
	C235.470108,73.326920 234.193588,74.441864 233.040344,74.746048 
	C232.498657,74.888908 231.169250,73.238243 230.681686,72.177490 
	C228.974289,68.462738 227.477890,64.651001 224.868347,61.000946 
	C224.868347,65.424370 224.868347,69.847786 224.868347,74.600677 
	C222.523026,74.600677 220.802475,74.600677 218.842896,74.600677 
	C218.842896,66.047005 218.842896,57.479351 218.842896,48.837189 
	C223.736404,47.520763 227.220123,48.055756 228.662781,53.716892 
	C229.587646,57.346207 231.458481,60.734459 233.380005,65.378052 
	C235.311584,60.880486 237.196121,57.596416 238.129562,54.061222 
	C239.542786,48.708992 242.680969,47.303211 248.251587,48.877090 
	C248.251587,54.542629 248.251587,60.469330 248.251556,66.875237 
z"/>
<path fill="#0F0F0F" opacity="1.000000" stroke="none" 
	d="
M124.626556,56.888222 
	C127.336082,50.180393 131.473999,47.573586 138.263031,47.989796 
	C144.084457,48.346684 148.429688,51.849171 149.798904,57.288296 
	C151.428116,63.760258 149.288696,70.478905 144.687622,73.339706 
	C139.984970,76.263672 132.316132,75.984367 128.259415,72.451172 
	C123.536972,68.338165 123.641121,62.860512 124.626556,56.888222 
M141.599930,54.937366 
	C138.771835,52.621365 135.000580,52.129753 133.103378,54.775826 
	C131.229736,57.389030 130.696381,61.413841 130.722168,64.810684 
	C130.747604,68.161156 133.535477,69.905670 136.961227,69.982048 
	C140.419754,70.059151 143.124222,68.295708 143.431198,65.022697 
	C143.722183,61.920261 142.621521,58.687305 141.599930,54.937366 
z"/>
<path fill="#0F0F0F" opacity="1.000000" stroke="none" 
	d="
M214.162155,56.114143 
	C216.420258,67.865639 212.460999,74.570137 203.199570,75.238235 
	C195.812042,75.771156 190.368805,72.028145 189.062988,65.517311 
	C187.460602,57.527767 190.594315,50.934063 197.042542,48.727364 
	C204.133392,46.300751 210.604248,48.958878 214.162155,56.114143 
M197.982193,54.410774 
	C194.683502,57.104385 194.294281,60.876583 195.353836,64.416245 
	C195.970459,66.476219 198.073853,68.933838 200.017303,69.517456 
	C201.968964,70.103531 204.952530,69.146965 206.763519,67.855965 
	C209.361069,66.004227 209.533401,59.100533 207.490692,56.170818 
	C205.234207,52.934517 202.115738,52.599850 197.982193,54.410774 
z"/>
<path fill="#0F0F0F" opacity="1.000000" stroke="none" 
	d="
M278.354034,72.863983 
	C276.949432,70.621597 275.775269,68.697052 274.393829,66.432770 
	C270.293488,69.722984 270.131042,77.986305 262.006836,74.248459 
	C263.900421,71.141785 265.767639,67.746475 267.967590,64.582466 
	C269.505096,62.371124 269.632568,60.604519 268.024506,58.356228 
	C265.926453,55.422863 264.185608,52.234043 262.291138,49.155262 
	C269.882050,45.471043 270.548645,52.699890 274.148010,56.581055 
	C275.686554,54.202576 276.661285,51.568859 278.545410,50.108261 
	C280.335602,48.720486 283.076874,48.559650 285.399963,47.859318 
	C285.588409,48.242031 285.776886,48.624744 285.965332,49.007458 
	C284.198486,51.938938 282.604675,54.994759 280.613525,57.765015 
	C278.818542,60.262390 278.658417,62.340042 280.490021,64.910767 
	C282.590271,67.858566 284.297028,71.086685 285.642548,75.449417 
	C283.289856,74.693550 280.937164,73.937675 278.354034,72.863983 
z"/>
<path fill="#0F0F0F" opacity="1.000000" stroke="none" 
	d="
M153.038605,53.368019 
	C152.513931,51.649803 152.096344,50.288830 151.660995,48.869999 
	C155.947647,47.496960 158.165115,48.618015 159.266525,52.771206 
	C160.395798,57.029434 162.207413,61.106716 164.225815,66.651695 
	C166.120773,61.069454 167.811646,56.854160 168.958160,52.495670 
	C170.104034,48.139618 172.620132,47.571568 176.690018,48.980450 
	C173.781708,57.016750 171.166870,65.052612 167.832306,72.777802 
	C167.158890,74.337875 163.760620,74.721756 161.352966,75.762772 
	C158.358276,67.721695 155.751984,60.723476 153.038605,53.368019 
z"/>
<path fill="#0F0F0F" opacity="1.000000" stroke="none" 
	d="
M74.211617,58.120857 
	C78.682007,56.938995 83.152397,55.757133 87.785301,54.532307 
	C87.785301,60.534405 87.785301,67.170929 87.785301,73.249802 
	C83.449875,72.122971 78.981079,70.961472 74.109482,69.348038 
	C73.874992,65.304344 74.043304,61.712597 74.211617,58.120857 
z"/>
<path fill="#0F0F0F" opacity="1.000000" stroke="none" 
	d="
M179.122665,64.956802 
	C179.122665,59.329239 179.122665,54.192963 179.122665,48.610634 
	C181.137299,48.509487 182.886581,48.421665 184.963501,48.317394 
	C184.963501,57.208981 184.963501,65.789635 184.963501,74.657623 
	C183.280090,74.657623 181.532684,74.657623 179.122665,74.657623 
	C179.122665,71.645996 179.122665,68.547043 179.122665,64.956802 
z"/>
<path fill="#0F0F0F" opacity="1.000000" stroke="none" 
	d="
M253.000092,50.521553 
	C254.687668,49.323139 256.374664,48.569134 258.740784,47.511612 
	C258.740784,57.218620 258.740784,65.784149 258.740784,74.647400 
	C257.124298,74.647400 255.371262,74.647400 252.999512,74.647400 
	C252.999512,66.844101 252.999512,58.905029 253.000092,50.521553 
z"/>
<path fill="#DC2D1F" opacity="1.000000" stroke="none" 
	d="
M74.213104,57.957672 
	C74.043304,61.712597 73.874992,65.304344 73.661560,69.330780 
	C73.616440,69.765465 73.708328,69.861038 73.727264,69.796761 
	C73.616135,66.039146 73.486069,62.345806 73.440430,58.302750 
	C73.754761,57.900185 73.984680,57.847340 74.213104,57.957672 
z"/>
<path fill="#DC2D1F" opacity="1.000000" stroke="none" 
	d="
M71.526901,54.746105 
	C71.127777,54.474297 70.898567,54.069893 70.797455,53.620514 
	C71.182640,53.921524 71.439735,54.267521 71.526901,54.746105 
z"/>
<path fill="#DC2D1F" opacity="1.000000" stroke="none" 
	d="
M55.623611,35.553745 
	C59.736782,33.804436 63.643890,33.959171 65.633545,37.610176 
	C66.917976,39.967102 67.412544,44.058151 66.175743,46.122967 
	C64.909439,48.237030 61.056347,49.869053 58.417770,49.757996 
	C56.284008,49.668186 53.432701,47.070831 52.401997,44.879250 
	C50.827461,41.531334 51.916840,38.032860 55.623611,35.553745 
z"/>
<path fill="#DC2D1F" opacity="1.000000" stroke="none" 
	d="
M32.553902,52.715824 
	C28.528578,53.142197 25.645430,51.509663 25.240732,48.055077 
	C24.986446,45.884430 26.192820,42.538006 27.873022,41.427574 
	C29.557953,40.314014 33.121056,40.485191 35.022762,41.566921 
	C39.590622,44.165211 38.397182,49.627045 32.553902,52.715824 
z"/>
<path fill="#FFFFFF" opacity="1.000000" stroke="none" 
	d="
M26.494328,59.762581 
	C26.612247,59.982296 26.364428,60.507065 25.809036,60.908195 
	C25.710508,60.545582 25.919550,60.306606 26.494328,59.762581 
z"/>
<path fill="#FFFFFF" opacity="1.000000" stroke="none" 
	d="
M141.866394,55.224556 
	C142.621521,58.687305 143.722183,61.920261 143.431198,65.022697 
	C143.124222,68.295708 140.419754,70.059151 136.961227,69.982048 
	C133.535477,69.905670 130.747604,68.161156 130.722168,64.810684 
	C130.696381,61.413841 131.229736,57.389030 133.103378,54.775826 
	C135.000580,52.129753 138.771835,52.621365 141.866394,55.224556 
z"/>
<path fill="#FFFFFF" opacity="1.000000" stroke="none" 
	d="
M198.314072,54.211777 
	C202.115738,52.599850 205.234207,52.934517 207.490692,56.170818 
	C209.533401,59.100533 209.361069,66.004227 206.763519,67.855965 
	C204.952530,69.146965 201.968964,70.103531 200.017303,69.517456 
	C198.073853,68.933838 195.970459,66.476219 195.353836,64.416245 
	C194.294281,60.876583 194.683502,57.104385 198.314072,54.211777 
z"/>
</svg>